<?xml version="1.0" encoding="utf-8"?>
<!-- Generator: Adobe Illustrator 24.0.0, SVG Export Plug-In . SVG Version: 6.00 Build 0)  -->
<svg version="1.1" id="Layer_1" xmlns="http://www.w3.org/2000/svg" xmlns:xlink="http://www.w3.org/1999/xlink" x="0px" y="0px"
	 viewBox="0 0 200 200" style="enable-background:new 0 0 200 200;" xml:space="preserve">
<style type="text/css">
	.st0{fill:#414042;}
	.st1{fill:#58595B;}
	.st2{fill:#6D6E71;}
	.st3{fill:#808285;}
	.st4{fill:#939598;}
	.st5{fill:none;}
	.st6{fill:#FFFFFF;}
	.st7{fill:#F79433;}
</style>
<g>
	<g>
		<path class="st0" d="M190.59,61.73c-4.95-11.71-12.04-22.22-21.07-31.25s-19.54-16.12-31.25-21.07c-12.12-5.13-25-7.73-38.27-7.73
			s-26.15,2.6-38.27,7.73c-11.71,4.95-22.22,12.04-31.25,21.07c-9.03,9.03-16.12,19.54-21.07,31.25c-5.13,12.12-7.73,25-7.73,38.27
			c0,13.27,2.6,26.15,7.73,38.27c4.95,11.71,12.04,22.22,21.07,31.25c9.03,9.03,19.54,16.12,31.25,21.07
			c12.12,5.13,25,7.73,38.27,7.73s26.15-2.6,38.27-7.73c11.71-4.95,22.22-12.04,31.25-21.07s16.12-19.54,21.07-31.25
			c5.13-12.12,7.73-25,7.73-38.27C198.32,86.73,195.72,73.85,190.59,61.73z"/>
	</g>
	<g>
		<g>
			<g>
				<g>
					<path class="st1" d="M162.27,99.93c0,34.33-27.82,62.15-62.15,62.15c-34.33,0-62.15-27.83-62.15-62.15
						c0-34.33,27.82-62.15,62.15-62.15C134.45,37.78,162.27,65.6,162.27,99.93z"/>
				</g>
			</g>
		</g>
		<g>
			<g>
				<g>
					<path class="st2" d="M138.08,68.23c-0.87,11.64-17.29,23.34-37.71,23.34c-20.42,0-44.25-17.39-36.85-26.41
						c2.82-3.44,16.43-15.84,36.85-15.84C120.79,49.31,138.45,63.32,138.08,68.23z"/>
				</g>
			</g>
		</g>
		<g>
			<g>
				<g>
					<path class="st3" d="M52.41,72.27c0,0,14.28-15.3,39.64-23.75c11.79-3.93,29.48,3.93,29.48,3.93s-54.04,11.79-72.55,41.6
						L52.41,72.27z"/>
				</g>
			</g>
		</g>
		<g>
			<g>
				<g>
					<path class="st3" d="M128.41,152.43c0,0-20.26,5.24-46.19-1.24c-12.06-3.01-22.76-19.13-22.76-19.13s51.93,19.05,83.54,3.84
						L128.41,152.43z"/>
				</g>
			</g>
		</g>
		<g>
			<g>
				<g>
					<path class="st2" d="M147.62,75.4c-37.83,50.77-99.33,12.12-99.33,12.12l-0.24,27.35c48.89,23.26,108.58-21.7,108.58-21.7
						S148.32,74.46,147.62,75.4z"/>
				</g>
			</g>
		</g>
		<g>
			<g>
				<g>
					<path class="st2" d="M153.19,94.64c2.13,18.34-71.63,49.85-99.25,36.36l13.39,13.01c0,0,34.88,5.65,81.32-16.58
						C151.26,126.18,152.84,91.69,153.19,94.64z"/>
				</g>
			</g>
		</g>
		<g>
			<g>
				<path class="st4" d="M65.26,133.88c-1.76-0.18-3.44-0.45-5.04-0.82c1.53,2.13,5.26,6.99,10.1,11.2
					c5.58,0.47,18.65,0.9,36.46-2.71C89.74,140.7,73.57,136.42,65.26,133.88z"/>
			</g>
		</g>
		<g>
			<g>
				<g>
					<path class="st1" d="M100.12,37.78c34.33,0,62.15,27.83,62.15,62.15c0,34.33-27.82,62.15-62.15,62.15
						c-34.33,0-62.15-27.83-62.15-62.15C37.97,65.6,65.8,37.78,100.12,37.78 M100.12,49.57c-13.45,0-26.1,5.24-35.61,14.75
						C55,73.83,49.76,86.48,49.76,99.93c0,13.45,5.24,26.1,14.75,35.61c9.51,9.51,22.16,14.75,35.61,14.75
						c13.45,0,26.1-5.24,35.61-14.75c9.52-9.51,14.75-22.16,14.75-35.61c0-13.45-5.24-26.1-14.75-35.61
						C126.22,54.81,113.57,49.57,100.12,49.57L100.12,49.57z"/>
				</g>
			</g>
		</g>
		<g>
			<g>
				<g>
					<g>
						<path class="st1" d="M95.92,79.06l11.19,28.24l5.94-20.72c0.79-2.73,1.38-4.59,1.77-5.59c0.38-1,1.1-1.95,2.16-2.85
							c1.06-0.9,2.51-1.36,4.34-1.36c1.87,0,3.33,0.45,4.39,1.36c1.06,0.9,1.8,1.88,2.23,2.94c0.43,1.06,1.03,2.89,1.79,5.49
							l7.45,26.07l8.27-28.05c0.55-2.02,1-3.49,1.33-4.39c0.34-0.9,0.9-1.7,1.7-2.39c0.79-0.69,1.94-1.03,3.45-1.03
							c1.5,0,2.81,0.52,3.91,1.56c1.1,1.04,1.65,2.27,1.65,3.68c0,1.29-0.48,3.23-1.43,5.84l-10.25,30.07
							c-0.89,2.55-1.58,4.38-2.07,5.52c-0.49,1.13-1.26,2.15-2.32,3.04c-1.06,0.89-2.51,1.33-4.35,1.33c-1.9,0-3.4-0.48-4.48-1.43
							c-1.09-0.95-1.89-2.11-2.41-3.49c-0.52-1.38-1.09-3.17-1.7-5.38l-7.17-24.46l-6.94,24.46c-0.92,3.4-1.92,5.97-2.99,7.7
							c-1.07,1.73-2.96,2.6-5.66,2.6c-1.38,0-2.55-0.27-3.52-0.8c-0.97-0.54-1.77-1.3-2.42-2.3c-0.39-0.6-0.74-1.27-1.07-2
							c-0.48,1.26-1.09,2.47-1.83,3.63c-2.08,3.22-5.12,5.73-9.13,7.55c-4,1.82-8.75,2.73-14.24,2.73c-6.58,0-12.02-1.25-16.29-3.73
							c-3.04-1.79-5.5-4.18-7.4-7.17c-1.9-2.99-2.85-5.89-2.85-8.72c0-1.64,0.57-3.04,1.71-4.21c1.14-1.17,2.59-1.75,4.35-1.75
							c1.42,0,2.63,0.46,3.62,1.37c0.98,0.91,1.83,2.26,2.52,4.05c0.85,2.12,1.77,3.9,2.75,5.33c0.99,1.43,2.37,2.6,4.17,3.53
							c1.79,0.93,4.14,1.39,7.05,1.39c4.01,0,7.26-0.93,9.76-2.8c2.5-1.87,3.75-4.19,3.75-6.99c0-2.21-0.68-4.01-2.02-5.39
							c-1.35-1.38-3.1-2.43-5.23-3.16c-2.14-0.73-5-1.5-8.58-2.32c-4.79-1.12-8.81-2.43-12.04-3.94c-3.23-1.5-5.8-3.55-7.69-6.14
							c-1.9-2.59-2.84-5.82-2.84-9.67c0-3.67,1-6.93,3-9.78c2-2.85,4.9-5.05,8.69-6.58c3.79-1.53,8.36-2.61,13.49-2.61
							c4.1,0,7.82,0.5,10.75,1.69C93.43,72.13,95.92,79.06,95.92,79.06z M83.62,82.8c-0.9-1.38-1.89-2.53-2.99-3.44
							c-1.7-1.41-4.43-2.12-8.19-2.12c-3.49,0-6.3,0.77-8.44,2.3c-2.14,1.53-3.21,3.38-3.21,5.53c0,1.34,0.36,2.49,1.09,3.46
							c0.73,0.97,1.73,1.81,3,2.5c1.27,0.7,2.56,1.25,3.87,1.64c1.3,0.39,3.46,0.97,6.46,1.73c3.76,0.88,7.17,1.85,10.22,2.91
							c1.71,0.6,3.27,1.27,4.7,2.01c-2.71-7.43-4.89-13.29-4.89-13.29L83.62,82.8z"/>
					</g>
				</g>
			</g>
		</g>
		<g>
			<g>
				<g>
					<path class="st5" d="M79.56,79.1c-1.7-1.41-4.43-2.12-8.19-2.12c-3.49,0-6.3,0.77-8.44,2.3c-2.14,1.53-3.21,3.38-3.21,5.53
						c0,1.34,0.36,2.49,1.09,3.46c0.73,0.97,1.73,1.8,3,2.5c1.27,0.7,2.56,1.25,3.87,1.64c1.3,0.39,3.46,0.97,6.46,1.73
						c3.76,0.88,7.17,1.85,10.22,2.91c1.71,0.6,3.27,1.27,4.7,2.01c-2.71-7.43-5.13-14.07-5.13-14.07
						C82.71,82.47,81.26,80.51,79.56,79.1z"/>
				</g>
			</g>
		</g>
		<g>
			<g>
				<g>
					<path class="st6" d="M93.84,77.86"/>
				</g>
			</g>
		</g>
		<g>
			<g>
				<g>
					<path class="st6" d="M94.85,78.79l11.19,28.24l5.93-20.72c0.79-2.73,1.39-4.59,1.77-5.59c0.38-1,1.1-1.95,2.16-2.85
						c1.06-0.91,2.51-1.36,4.35-1.36c1.87,0,3.33,0.45,4.39,1.36c1.06,0.9,1.8,1.88,2.23,2.94c0.43,1.06,1.03,2.89,1.79,5.49
						l7.45,26.07l8.27-28.05c0.55-2.02,1-3.49,1.34-4.39c0.34-0.9,0.9-1.7,1.7-2.39c0.8-0.69,1.95-1.03,3.45-1.03
						c1.5,0,2.8,0.52,3.91,1.56c1.1,1.04,1.65,2.27,1.65,3.68c0,1.29-0.48,3.23-1.43,5.84l-10.25,30.07
						c-0.89,2.54-1.58,4.38-2.07,5.52c-0.49,1.13-1.27,2.15-2.32,3.03c-1.06,0.89-2.51,1.33-4.35,1.33c-1.9,0-3.39-0.48-4.48-1.43
						c-1.09-0.95-1.89-2.11-2.41-3.49c-0.52-1.38-1.09-3.17-1.7-5.38l-7.17-24.46l-6.94,24.46c-0.92,3.4-1.91,5.97-2.99,7.7
						c-1.07,1.73-2.96,2.6-5.65,2.6c-1.38,0-2.55-0.27-3.52-0.8c-0.97-0.54-1.77-1.3-2.41-2.3c-0.39-0.6-0.74-1.27-1.07-2
						c-0.48,1.26-1.09,2.47-1.83,3.63c-2.08,3.22-5.12,5.73-9.13,7.55c-4,1.82-8.75,2.73-14.25,2.73c-6.58,0-12.01-1.24-16.29-3.73
						c-3.03-1.79-5.5-4.18-7.39-7.17c-1.9-2.99-2.84-5.89-2.84-8.72c0-1.64,0.57-3.04,1.71-4.21c1.14-1.17,2.59-1.75,4.35-1.75
						c1.43,0,2.63,0.46,3.62,1.37c0.99,0.91,1.83,2.26,2.53,4.05c0.85,2.12,1.77,3.9,2.75,5.32c0.99,1.43,2.37,2.6,4.16,3.53
						c1.79,0.93,4.14,1.39,7.05,1.39c4.01,0,7.26-0.93,9.76-2.8c2.5-1.87,3.75-4.19,3.75-6.99c0-2.22-0.68-4.01-2.03-5.39
						c-1.35-1.38-3.1-2.43-5.23-3.16c-2.14-0.73-5-1.5-8.58-2.32c-4.79-1.12-8.81-2.43-12.04-3.94c-3.23-1.5-5.8-3.55-7.69-6.14
						c-1.9-2.59-2.85-5.82-2.85-9.67c0-3.67,1-6.93,3-9.79c2-2.85,4.9-5.04,8.69-6.58c3.79-1.53,8.36-2.61,13.49-2.61
						c4.1,0,7.82,0.5,10.75,1.69C92.37,71.87,94.85,78.79,94.85,78.79z M82.55,82.54c-0.9-1.38-1.9-2.53-2.99-3.44
						c-1.7-1.41-4.43-2.12-8.19-2.12c-3.49,0-6.3,0.77-8.44,2.3c-2.14,1.53-3.21,3.38-3.21,5.53c0,1.34,0.36,2.49,1.09,3.46
						c0.73,0.97,1.73,1.8,3,2.5c1.27,0.7,2.56,1.25,3.87,1.64c1.3,0.39,3.46,0.97,6.46,1.73c3.76,0.88,7.17,1.85,10.22,2.91
						c1.71,0.6,3.27,1.27,4.7,2.01c-2.71-7.43-4.89-13.3-4.89-13.3L82.55,82.54z"/>
				</g>
			</g>
		</g>
	</g>
	<g>
		<g>
			<path class="st6" d="M21.29,85.36l6.54,4.61l-0.27,1.72l-7.63,2.38l8.16,1.27l-0.45,2.89l-12.96-2.02l0.61-3.91l7.64-2.23
				l-6.59-4.47l0.61-3.89l12.96,2.02l-0.45,2.89L21.29,85.36z"/>
		</g>
		<g>
			<path class="st6" d="M33.94,73.39l-3.08,0.13l-1.95,5.14l2.22,2.15l-1.11,2.91l-10.25-9.95l1.01-2.65l14.27-0.64L33.94,73.39z
				 M23.92,73.82l2.98,2.9l1.17-3.07L23.92,73.82z"/>
		</g>
		<g>
			<path class="st6" d="M23.92,63.86l1.48-2.53l4.65,2.72l-2.14-7l1.83-3.12l2.36,7.43c0.77-0.07,2.19-0.2,4.28-0.38
				c2.09-0.18,3.64-0.32,4.67-0.42l-1.73,2.95l-6.41,0.7l0.6,1.87l3.21,1.88l-1.48,2.53L23.92,63.86z"/>
		</g>
		<g>
			<path class="st6" d="M37.25,44.68l2.02,1.65l-4.14,5.05l2.09,1.71l3.72-4.54l1.93,1.58l-3.72,4.54l2.1,1.72l4.27-5.21l2,1.64
				l-6.12,7.48L31.26,52L37.25,44.68z"/>
		</g>
		<g>
			<path class="st6" d="M48.76,37.59l6.73,8.17l-2.26,1.86l-6.73-8.17l-2.87,2.36l-1.61-1.95l7.99-6.59l1.61,1.95L48.76,37.59z"/>
		</g>
		<g>
			<path class="st6" d="M59.27,27.51l2.52-1.49l6.68,11.29l-2.52,1.49l-2.63-4.44l-4.49,2.66l2.63,4.44l-2.52,1.49l-6.68-11.29
				l2.52-1.49l2.79,4.71l4.49-2.66L59.27,27.51z"/>
		</g>
		<g>
			<path class="st6" d="M74.15,20.93l0.95,2.43l-6.08,2.38L70,28.25l5.47-2.14l0.91,2.32l-5.47,2.14l0.99,2.53l6.27-2.46l0.95,2.41
				l-9,3.53l-4.79-12.21L74.15,20.93z"/>
		</g>
		<g>
			<path class="st6" d="M85.23,20.89c-0.24,0.28-0.32,0.6-0.26,0.98c0.07,0.38,0.29,0.65,0.67,0.81c0.38,0.16,1.21,0.29,2.49,0.37
				c1.28,0.09,2.31,0.37,3.09,0.86c0.78,0.48,1.28,1.31,1.48,2.46c0.2,1.16-0.07,2.17-0.81,3.05c-0.74,0.87-1.82,1.43-3.24,1.68
				c-2.05,0.36-4.02-0.07-5.93-1.3l1.35-2.41c1.61,0.98,3,1.36,4.18,1.15c0.53-0.09,0.93-0.28,1.19-0.56c0.26-0.28,0.36-0.61,0.29-1
				c-0.07-0.39-0.28-0.67-0.64-0.84c-0.36-0.17-1.04-0.29-2.03-0.36c-1.57-0.09-2.75-0.37-3.54-0.82c-0.8-0.45-1.3-1.29-1.52-2.51
				c-0.22-1.23,0.06-2.25,0.82-3.07c0.76-0.82,1.81-1.35,3.12-1.58c0.86-0.15,1.75-0.15,2.67-0.01c0.91,0.14,1.74,0.43,2.48,0.86
				l-1.09,2.36c-1.27-0.65-2.5-0.87-3.7-0.67C85.83,20.44,85.47,20.62,85.23,20.89z"/>
		</g>
		<g>
			<path class="st6" d="M98.52,24.28l2.47-7.5l3.06,0.06l2.17,7.59l2.75-7.49l3.17,0.06l-4.82,13.03l-2.18-0.04l-2.7-9.17
				l-3.02,9.07l-2.18-0.04l-4.33-13.2l3.17,0.06L98.52,24.28z"/>
		</g>
		<g>
			<path class="st6" d="M113.98,17.8l2.89,0.45l-2.02,12.96l-2.89-0.45L113.98,17.8z"/>
		</g>
		<g>
			<path class="st6" d="M125.04,22.84l-2.85,10.19l-2.82-0.79l2.85-10.19l-3.58-1l0.68-2.44l9.98,2.79l-0.68,2.44L125.04,22.84z"/>
		</g>
		<g>
			<path class="st6" d="M133.03,34.41c1.31,0.59,2.62,0.56,3.92-0.1l0.91,2.53c-2.05,0.91-3.99,0.95-5.83,0.12
				c-1.84-0.83-3.09-2.1-3.76-3.8c-0.66-1.7-0.6-3.44,0.21-5.21c0.8-1.77,2.08-2.98,3.83-3.61c1.75-0.64,3.5-0.56,5.26,0.24
				c1.96,0.89,3.26,2.38,3.91,4.47l-2.51,1.13c-0.37-1.43-1.18-2.43-2.43-3c-1-0.45-2.01-0.51-3.02-0.18
				c-1.01,0.33-1.76,1.05-2.27,2.17c-0.5,1.11-0.57,2.16-0.2,3.13C131.41,33.27,132.08,33.98,133.03,34.41z"/>
		</g>
		<g>
			<path class="st6" d="M151.72,33.21l2.42,1.65l-7.38,10.84l-2.42-1.65l2.9-4.27l-4.31-2.94l-2.9,4.27l-2.42-1.65l7.38-10.84
				l2.42,1.65l-3.08,4.53l4.31,2.94L151.72,33.21z"/>
		</g>
	</g>
	<g>
		<g>
			<path class="st7" d="M40.33,141.79c-0.34-0.1-0.67-0.05-0.98,0.16c-0.31,0.21-0.46,0.52-0.45,0.93c0.01,0.41,0.22,1.21,0.66,2.4
				c0.43,1.2,0.59,2.25,0.47,3.15c-0.12,0.91-0.66,1.69-1.61,2.34c-0.95,0.66-1.97,0.82-3.04,0.5c-1.08-0.32-2.01-1.07-2.8-2.25
				c-1.14-1.71-1.54-3.67-1.2-5.9l2.69,0.25c-0.23,1.85-0.01,3.27,0.64,4.26c0.3,0.44,0.62,0.73,0.98,0.85
				c0.36,0.12,0.69,0.07,1.01-0.14c0.32-0.22,0.48-0.53,0.49-0.92c0.01-0.4-0.15-1.06-0.49-1.98c-0.54-1.46-0.77-2.64-0.69-3.54
				c0.08-0.91,0.63-1.7,1.64-2.4c1.01-0.69,2.03-0.86,3.07-0.5c1.04,0.36,1.92,1.09,2.66,2.19c0.48,0.72,0.84,1.52,1.08,2.41
				c0.24,0.89,0.31,1.75,0.22,2.59l-2.55-0.03c0.08-1.42-0.22-2.62-0.88-3.62C40.98,142.15,40.68,141.89,40.33,141.79z"/>
		</g>
		<g>
			<path class="st7" d="M44.42,155.14l6.77-3.77l2.15,2.11l-3.52,6.98l6.97-3.58l2.23,2.19l-12.15,6.19l-1.53-1.5l4.19-8.49
				l-8.22,4.53l-1.53-1.5l5.72-12.52l2.23,2.19L44.42,155.14z"/>
		</g>
		<g>
			<path class="st7" d="M60,159l2.36,1.65l-7.28,10.73l-2.36-1.65L60,159z"/>
		</g>
		<g>
			<path class="st7" d="M68.14,166.96l-4.86,9.28l-2.53-1.36l4.86-9.29l-3.21-1.73l1.16-2.22l8.95,4.82l-1.16,2.22L68.14,166.96z"/>
		</g>
		<g>
			<path class="st7" d="M76.01,178.8c1.33,0.45,2.6,0.29,3.8-0.49l1.14,2.41c-1.9,1.11-3.79,1.34-5.67,0.7
				c-1.87-0.64-3.22-1.77-4.04-3.38c-0.82-1.61-0.92-3.34-0.32-5.17c0.61-1.83,1.73-3.15,3.37-3.95c1.64-0.8,3.36-0.9,5.14-0.29
				c2,0.68,3.41,2.02,4.25,4.02l-2.33,1.37c-0.5-1.38-1.39-2.28-2.67-2.72c-1.02-0.35-2.01-0.3-2.96,0.12
				c-0.95,0.43-1.61,1.22-1.99,2.37c-0.38,1.15-0.34,2.19,0.11,3.12C74.32,177.84,75.03,178.47,76.01,178.8z"/>
		</g>
		<g>
			<path class="st7" d="M93.55,171.99l2.84,0.4l-1.79,12.9l-2.84-0.41l0.7-5.07l-5.06-0.72l-0.7,5.07l-2.84-0.4l1.79-12.9l2.84,0.41
				l-0.75,5.39l5.06,0.72L93.55,171.99z"/>
		</g>
		<g>
			<path class="st7" d="M101.8,174.91c-0.27,0.24-0.39,0.55-0.38,0.93c0.01,0.38,0.19,0.68,0.54,0.88c0.34,0.21,1.13,0.45,2.36,0.71
				c1.23,0.26,2.19,0.68,2.88,1.27c0.69,0.59,1.06,1.46,1.1,2.63c0.04,1.17-0.36,2.13-1.2,2.88c-0.84,0.76-1.96,1.16-3.37,1.21
				c-2.03,0.07-3.89-0.63-5.57-2.1l1.64-2.18c1.42,1.18,2.72,1.75,3.9,1.71c0.52-0.02,0.93-0.15,1.23-0.39
				c0.29-0.24,0.43-0.56,0.42-0.95c-0.01-0.39-0.18-0.7-0.51-0.91c-0.33-0.22-0.96-0.43-1.91-0.63c-1.51-0.31-2.61-0.74-3.32-1.29
				c-0.71-0.55-1.09-1.45-1.13-2.68c-0.04-1.24,0.36-2.2,1.21-2.91c0.85-0.7,1.93-1.07,3.24-1.12c0.86-0.03,1.72,0.09,2.58,0.36
				c0.87,0.27,1.63,0.66,2.28,1.19l-1.38,2.17c-1.14-0.82-2.31-1.21-3.49-1.16C102.44,174.54,102.07,174.67,101.8,174.91z"/>
		</g>
		<g>
			<path class="st7" d="M122.46,180.6c-0.99,1.54-2.42,2.51-4.27,2.93c-1.85,0.41-3.55,0.13-5.09-0.84
				c-1.54-0.97-2.51-2.39-2.92-4.26c-0.4-1.87-0.11-3.57,0.88-5.11c1-1.54,2.42-2.52,4.27-2.93c1.85-0.41,3.55-0.13,5.09,0.84
				c1.54,0.97,2.51,2.39,2.92,4.26C123.75,177.35,123.46,179.06,122.46,180.6z M120.5,176.13c-0.25-1.13-0.81-2.02-1.71-2.66
				c-0.89-0.64-1.86-0.84-2.91-0.61c-1.05,0.23-1.84,0.83-2.39,1.79c-0.54,0.96-0.69,2.01-0.45,3.14c0.25,1.13,0.81,2.02,1.7,2.65
				c0.89,0.64,1.86,0.84,2.9,0.6c1.05-0.23,1.84-0.83,2.39-1.78C120.6,178.31,120.74,177.27,120.5,176.13z"/>
		</g>
		<g>
			<path class="st7" d="M131.56,165.05l0.97,2.36l-5.49,2.33l1.07,2.6l5.22-2.21l0.97,2.36l-5.22,2.21l1.94,4.71l-2.64,1.12
				l-4.95-12.02L131.56,165.05z"/>
		</g>
		<g>
			<path class="st7" d="M138.98,163.56l5.35,9l-2.45,1.5l-5.35-9l-3.11,1.9l-1.28-2.15l8.68-5.31l1.28,2.15L138.98,163.56z"/>
		</g>
		<g>
			<path class="st7" d="M149.83,161.78l-3.33-7.07l2.2-2.06l6.67,3.95l-3.13-7.26l2.28-2.13l5.41,12.66l-1.57,1.47l-8.12-4.73
				l4,8.58l-1.57,1.47l-12-6.49l2.28-2.14L149.83,161.78z"/>
		</g>
		<g>
			<path class="st7" d="M169.85,146.99l-2.95-0.64l-3.11,4.46l1.57,2.61l-1.76,2.52l-7.27-12.12l1.6-2.3l13.68,2.94L169.85,146.99z
				 M160.25,144.91l2.11,3.53l1.86-2.66L160.25,144.91z"/>
		</g>
		<g>
			<path class="st7" d="M169.57,128.53c1.87,0.88,2.73,2.2,2.59,3.95l5.53-1.03l-1.49,3.24l-4.91,0.87l-0.84,1.82l3.71,1.75
				l-1.21,2.64l-11.64-5.49l2.05-4.48c0.84-1.84,1.75-3,2.72-3.5C167.05,127.82,168.22,127.89,169.57,128.53z M169.5,132.36
				c-0.14-0.46-0.52-0.84-1.15-1.14c-0.63-0.3-1.13-0.33-1.52-0.1c-0.39,0.23-0.78,0.76-1.16,1.61l-0.91,1.98l3.45,1.63l0.88-1.93
				C169.5,133.5,169.64,132.82,169.5,132.36z"/>
		</g>
		<g>
			<path class="st7" d="M168.79,115.62l2.46,0.68l-1.68,6.26l2.55,0.71l1.51-5.63l2.36,0.65l-1.51,5.63l2.57,0.71l1.73-6.46
				l2.44,0.68l-2.48,9.26l-12.39-3.42L168.79,115.62z"/>
		</g>
		<g>
			<path class="st7" d="M181.39,115.36c-0.35,0.27-0.76,0.36-1.2,0.3c-0.45-0.07-0.8-0.28-1.07-0.64c-0.26-0.36-0.36-0.77-0.29-1.22
				c0.07-0.46,0.28-0.82,0.63-1.08c0.35-0.27,0.76-0.36,1.2-0.3c0.45,0.07,0.8,0.28,1.07,0.64c0.26,0.36,0.36,0.77,0.29,1.22
				C181.96,114.73,181.75,115.09,181.39,115.36z"/>
		</g>
		<g>
			<path class="st7" d="M179.41,105.75c0.61-0.47,0.92-1.12,0.94-1.93c0.02-0.82-0.26-1.48-0.84-1.97
				c-0.58-0.49-1.39-0.75-2.42-0.78l-7.09-0.17l0.07-2.91l7.18,0.17c1.86,0.05,3.28,0.6,4.25,1.67c0.97,1.07,1.44,2.41,1.4,4.04
				c-0.04,1.63-0.57,2.95-1.6,3.98c-1.03,1.03-2.47,1.52-4.32,1.47l-7.18-0.17l0.07-2.91l7.09,0.17
				C177.99,106.44,178.8,106.22,179.41,105.75z"/>
		</g>
		<g>
			<path class="st7" d="M171.91,92.42c0.27,0.24,0.58,0.34,0.95,0.28c0.37-0.06,0.64-0.27,0.81-0.64c0.17-0.37,0.31-1.19,0.42-2.46
				c0.12-1.27,0.42-2.28,0.91-3.05c0.49-0.77,1.31-1.23,2.45-1.41c1.14-0.17,2.13,0.12,2.96,0.88c0.84,0.76,1.36,1.84,1.57,3.26
				c0.3,2.04-0.17,3.99-1.42,5.85l-2.33-1.4c0.99-1.57,1.4-2.95,1.23-4.12c-0.08-0.53-0.25-0.93-0.52-1.19
				c-0.27-0.27-0.59-0.37-0.98-0.31c-0.38,0.06-0.66,0.26-0.84,0.62c-0.18,0.35-0.31,1.02-0.4,2c-0.13,1.55-0.42,2.72-0.88,3.5
				c-0.46,0.78-1.29,1.26-2.5,1.45c-1.2,0.18-2.2-0.11-2.98-0.89c-0.78-0.78-1.27-1.83-1.47-3.14c-0.13-0.86-0.11-1.74,0.05-2.65
				c0.16-0.9,0.46-1.72,0.9-2.44l2.29,1.14c-0.67,1.25-0.92,2.46-0.74,3.66C171.48,91.82,171.65,92.18,171.91,92.42z"/>
		</g>
	</g>
</g>
</svg>
