<?xml version="1.0" encoding="utf-8"?>
<!-- Generator: Adobe Illustrator 24.3.0, SVG Export Plug-In . SVG Version: 6.00 Build 0)  -->
<svg version="1.1" id="Layer_1" xmlns="http://www.w3.org/2000/svg" xmlns:xlink="http://www.w3.org/1999/xlink" x="0px" y="0px"
	 viewBox="0 0 145 45" style="enable-background:new 0 0 145 45;" xml:space="preserve">
<style type="text/css">
	.st0{display:none;}
	.st1{display:inline;fill:#484848;}
	.st2{display:none;fill:#484848;}
	.st3{display:inline;}
	.st4{fill:#484848;}
</style>
<g class="st0">
	<path class="st1" d="M93.13,57.05l-3.81-3.81c-0.09-0.09-0.22-0.15-0.35-0.15h-9.52c-0.97,0-1.76,0.79-1.76,1.76v15.86
		c0,0.97,0.79,1.76,1.76,1.76h12.06c0.97,0,1.76-0.79,1.76-1.76V57.39C93.28,57.26,93.22,57.14,93.13,57.05z M90.25,57.89h2.04
		v12.83c0,0.43-0.35,0.78-0.78,0.78H79.46c-0.43,0-0.78-0.35-0.78-0.78V54.85c0-0.43,0.35-0.78,0.78-0.78h9.03v2.05
		C88.49,57.09,89.28,57.88,90.25,57.89z M89.47,56.13v-1.35l2.13,2.13h-1.35C89.82,56.9,89.47,56.55,89.47,56.13z"/>
	<path class="st1" d="M83.78,59.3c0,0.27,0.22,0.49,0.49,0.49h6.61c0.27,0,0.49-0.22,0.49-0.49s-0.22-0.49-0.49-0.49h-6.61
		C84,58.8,83.78,59.03,83.78,59.3z"/>
	<path class="st1" d="M80.1,61.69h5.34c0.27,0,0.49-0.22,0.49-0.49s-0.22-0.49-0.49-0.49H80.1c-0.27,0-0.49,0.22-0.49,0.49
		S79.83,61.69,80.1,61.69z"/>
	<path class="st1" d="M90.88,62.61h-5.71c-0.27,0-0.49,0.22-0.49,0.49s0.22,0.49,0.49,0.49h5.71c0.27,0,0.49-0.22,0.49-0.49
		S91.15,62.61,90.88,62.61z"/>
	<path class="st1" d="M80.1,65.5h6.61c0.27,0,0.49-0.22,0.49-0.49s-0.22-0.49-0.49-0.49H80.1c-0.27,0-0.49,0.22-0.49,0.49
		S79.83,65.5,80.1,65.5z"/>
	<path class="st1" d="M80.1,59.79H82c0.27,0,0.49-0.22,0.49-0.49S82.27,58.8,82,58.8h-1.9c-0.27,0-0.49,0.22-0.49,0.49
		S79.83,59.79,80.1,59.79z"/>
	<path class="st1" d="M90.88,60.71h-3.17c-0.27,0-0.49,0.22-0.49,0.49s0.22,0.49,0.49,0.49h3.17c0.27,0,0.49-0.22,0.49-0.49
		S91.15,60.71,90.88,60.71z"/>
	<path class="st1" d="M80.1,63.6h2.81c0.27,0,0.49-0.22,0.49-0.49s-0.22-0.49-0.49-0.49H80.1c-0.27,0-0.49,0.22-0.49,0.49
		S79.83,63.6,80.1,63.6z"/>
	<path class="st1" d="M90.88,64.51h-1.9c-0.27,0-0.49,0.22-0.49,0.49s0.22,0.49,0.49,0.49h1.9c0.27,0,0.49-0.22,0.49-0.49
		S91.15,64.51,90.88,64.51z"/>
	<path class="st1" d="M87.61,68.32H80.1c-0.27,0-0.49,0.22-0.49,0.49s0.22,0.49,0.49,0.49h7.51c0.27,0,0.49-0.22,0.49-0.49
		S87.88,68.32,87.61,68.32z"/>
	<path class="st1" d="M80.1,67.4h2.54c0.27,0,0.49-0.22,0.49-0.49s-0.22-0.49-0.49-0.49H80.1c-0.27,0-0.49,0.22-0.49,0.49
		S79.83,67.4,80.1,67.4z"/>
	<path class="st1" d="M80.1,57.89h3.81c0.27,0,0.49-0.22,0.49-0.49s-0.22-0.49-0.49-0.49H80.1c-0.27,0-0.49,0.22-0.49,0.49
		S79.83,57.89,80.1,57.89z"/>
	<path class="st1" d="M84.9,66.42c-0.27,0-0.49,0.22-0.49,0.49s0.22,0.49,0.49,0.49h1.17c0.27,0,0.49-0.22,0.49-0.49
		s-0.22-0.49-0.49-0.49H84.9z"/>
	<path class="st1" d="M90.88,66.42h-2.54c-0.27,0-0.49,0.22-0.49,0.49s0.22,0.49,0.49,0.49h2.54c0.27,0,0.49-0.22,0.49-0.49
		S91.15,66.42,90.88,66.42z"/>
	<path class="st1" d="M90.88,68.32h-1.27c-0.27,0-0.49,0.22-0.49,0.49s0.22,0.49,0.49,0.49h1.27c0.27,0,0.49-0.22,0.49-0.49
		S91.15,68.32,90.88,68.32z"/>
</g>
<g class="st0">
	<path class="st1" d="M79.83,60.39h-1.85c-0.51,0.01-0.92,0.42-0.93,0.93v9.12c0.01,0.51,0.42,0.93,0.93,0.93h1.85
		c0.52-0.01,0.93-0.42,0.93-0.93v-9.12C80.76,60.82,80.34,60.4,79.83,60.39z M79.72,70.37h-1.7V61.4l1.69-0.01L79.72,70.37z"/>
	<path class="st1" d="M84.22,56.01l-1.85,0c-0.51,0.01-0.92,0.42-0.93,0.93v13.47c0.01,0.51,0.42,0.93,0.93,0.93h1.85
		c0.51-0.01,0.93-0.42,0.93-0.93V56.95C85.14,56.43,84.73,56.02,84.22,56.01z M84.11,57v13.33h-1.7V57.02L84.11,57z"/>
	<path class="st1" d="M88.6,58.18h-2.02c-0.43,0.09-0.75,0.52-0.76,0.97v11.29c0.01,0.51,0.42,0.93,0.93,0.93h1.85
		c0.52-0.01,0.93-0.42,0.93-0.93V59.12C89.52,58.61,89.11,58.19,88.6,58.18z M88.52,59.19l0,11.14h-1.7V59.19H88.52z"/>
	<path class="st1" d="M92.98,54.2h-1.85c-0.51,0.01-0.93,0.42-0.93,0.93v15.29c0.02,0.5,0.43,0.91,0.93,0.93h1.85
		c0.51-0.01,0.93-0.42,0.93-0.93V55.13C93.91,54.62,93.49,54.2,92.98,54.2z M92.94,55.21v15.13h-1.7V55.21L92.94,55.21z"/>
</g>
<g class="st0">
	<path class="st1" d="M94.92,61.57L94.92,61.57c-0.03-0.2-0.17-0.37-0.37-0.43l-1.72-0.49c-0.16-0.54-0.37-1.06-0.64-1.55l0.87-1.56
		c0.1-0.18,0.08-0.4-0.04-0.57c-0.24-0.32-0.51-0.63-0.8-0.91c-0.29-0.29-0.6-0.57-0.92-0.81c-0.17-0.12-0.39-0.14-0.57-0.04
		l-1.56,0.87c-0.49-0.27-1.01-0.48-1.54-0.64l-0.49-1.72c-0.06-0.2-0.23-0.34-0.43-0.37c-0.81-0.1-1.62-0.1-2.43,0
		c-0.2,0.03-0.37,0.17-0.43,0.37l-0.49,1.72c-0.54,0.16-1.06,0.37-1.55,0.64l-1.56-0.87c-0.18-0.1-0.4-0.08-0.57,0.04
		c-0.32,0.25-0.63,0.52-0.91,0.8c-0.29,0.28-0.56,0.59-0.81,0.92c-0.12,0.16-0.14,0.39-0.04,0.57l0.87,1.56
		c-0.27,0.49-0.49,1.01-0.64,1.54l-1.72,0.49c-0.2,0.06-0.35,0.23-0.37,0.43c-0.1,0.81-0.1,1.62,0,2.43
		c0.03,0.21,0.17,0.37,0.37,0.43l1.72,0.49c0.16,0.54,0.37,1.06,0.64,1.55l-0.87,1.56c-0.1,0.18-0.08,0.4,0.04,0.57
		c0.24,0.32,0.51,0.63,0.8,0.91c0.29,0.29,0.6,0.57,0.92,0.81c0.17,0.12,0.39,0.14,0.57,0.04l1.56-0.87
		c0.49,0.27,1.01,0.49,1.55,0.64l0.49,1.72c0.06,0.2,0.23,0.34,0.43,0.37c0.4,0.05,0.81,0.08,1.22,0.08c0.41,0,0.82-0.03,1.22-0.08
		c0.21-0.03,0.38-0.17,0.43-0.37l0.49-1.72c0.53-0.15,1.05-0.37,1.55-0.64l1.56,0.87c0.18,0.1,0.4,0.08,0.57-0.04
		c0.32-0.24,0.63-0.51,0.91-0.8c0.29-0.28,0.56-0.59,0.81-0.92c0.12-0.17,0.14-0.39,0.04-0.57l-0.87-1.56
		c0.27-0.49,0.49-1.01,0.64-1.54l1.72-0.49c0.2-0.06,0.35-0.23,0.37-0.43C95.03,63.19,95.03,62.38,94.92,61.57z M91.9,64.38
		L91.9,64.38c-0.16,0.64-0.41,1.25-0.75,1.81c-0.1,0.16-0.1,0.36-0.01,0.52l0.84,1.52c-0.16,0.19-0.33,0.37-0.5,0.55
		c-0.17,0.17-0.35,0.34-0.54,0.5l-1.52-0.84c-0.16-0.09-0.36-0.08-0.52,0.01c-0.57,0.34-1.18,0.59-1.82,0.75
		c-0.18,0.05-0.33,0.18-0.38,0.36l-0.48,1.67c-0.49,0.04-0.99,0.04-1.48,0l-0.48-1.67c-0.05-0.18-0.19-0.32-0.38-0.36
		c-0.64-0.16-1.25-0.41-1.81-0.75c-0.16-0.1-0.36-0.1-0.52-0.01l-1.52,0.84c-0.19-0.16-0.37-0.33-0.55-0.51
		c-0.17-0.17-0.34-0.35-0.5-0.54l0.84-1.52c0.09-0.16,0.09-0.36-0.01-0.52c-0.34-0.57-0.6-1.18-0.75-1.82
		c-0.05-0.18-0.19-0.33-0.37-0.37l-1.67-0.47c-0.02-0.24-0.03-0.49-0.03-0.74c0-0.25,0.01-0.5,0.03-0.74l1.67-0.47
		c0.18-0.05,0.32-0.19,0.36-0.38c0.16-0.64,0.41-1.25,0.75-1.81c0.09-0.16,0.1-0.36,0.01-0.52l-0.84-1.52
		c0.16-0.19,0.33-0.37,0.51-0.55c0.17-0.17,0.35-0.33,0.54-0.5l1.52,0.84c0.16,0.09,0.36,0.09,0.52-0.01
		c0.56-0.34,1.18-0.59,1.82-0.75c0.18-0.04,0.33-0.18,0.38-0.36l0.47-1.67c0.49-0.04,0.99-0.04,1.48,0l0.47,1.67
		c0.05,0.18,0.19,0.32,0.38,0.36c0.64,0.16,1.25,0.41,1.82,0.75c0.16,0.1,0.35,0.1,0.52,0.01l1.52-0.84
		c0.19,0.16,0.37,0.33,0.55,0.51c0.17,0.17,0.34,0.35,0.5,0.54l-0.84,1.52c-0.09,0.16-0.09,0.36,0.01,0.52
		c0.34,0.56,0.59,1.18,0.75,1.82c0.04,0.18,0.18,0.33,0.36,0.38l1.67,0.48c0.02,0.25,0.03,0.5,0.03,0.75c0,0.24-0.01,0.48-0.03,0.73
		L92.26,64C92.08,64.05,91.94,64.2,91.9,64.38z"/>
	<path class="st1" d="M85.49,58.25c-2.5,0-4.53,2.04-4.54,4.54c0,2.5,2.04,4.53,4.54,4.53c2.5,0,4.53-2.04,4.53-4.53
		C90.02,60.29,87.98,58.25,85.49,58.25z M85.49,66.32c-1.95,0-3.53-1.59-3.53-3.53c0-1.95,1.59-3.53,3.53-3.53
		c1.95,0,3.53,1.59,3.53,3.53C89.02,64.73,87.43,66.32,85.49,66.32z"/>
</g>
<g class="st0">
	<path class="st1" d="M94.55,67.37l-6.88-5.53c-0.24-0.23-0.6-0.29-0.91-0.16c-0.32,0.13-0.52,0.44-0.52,0.78v2.59H76.11
		c-0.47,0-0.85,0.38-0.85,0.85v4.16c0,0.47,0.38,0.85,0.85,0.85h10.13v2.61c0,0.47,0.38,0.85,0.85,0.85c0,0,0.01,0,0.01,0
		c0.21,0,0.42-0.08,0.57-0.22l6.88-5.51c0.01-0.01,0.03-0.02,0.04-0.04c0.33-0.33,0.33-0.87,0-1.2
		C94.58,67.39,94.57,67.38,94.55,67.37z M86.75,69.9H76.28v-3.84h10.48c0.28,0,0.5-0.23,0.5-0.51V62.8l6.47,5.2l-6.47,5.18v-2.78
		C87.26,70.13,87.03,69.9,86.75,69.9z"/>
	<path class="st1" d="M94.86,54.66H84.73v-2.61c0-0.21-0.08-0.42-0.23-0.58c-0.32-0.34-0.86-0.36-1.2-0.05l-6.88,5.51
		c-0.01,0.01-0.03,0.02-0.04,0.03c-0.16,0.16-0.25,0.37-0.25,0.6s0.09,0.44,0.25,0.6c0.01,0.01,0.03,0.03,0.04,0.04l6.88,5.52
		c0.14,0.13,0.33,0.21,0.52,0.23l0,0.01h0.06c0.47,0,0.85-0.38,0.85-0.85v-2.59h10.13c0.47,0,0.85-0.38,0.85-0.85v-4.16
		C95.71,55.04,95.33,54.66,94.86,54.66z M84.23,55.67H94.7v3.84H84.22c-0.28,0-0.5,0.23-0.5,0.5v2.76l-6.47-5.2l6.48-5.18v2.78
		C83.72,55.44,83.95,55.67,84.23,55.67z"/>
</g>
<path class="st2" d="M87.72,72.45c-0.43,0-0.79-0.35-0.79-0.79v-4.96h-2.89v4.96c0,0.43-0.35,0.79-0.79,0.79h-4.07
	c-0.43,0-0.79-0.35-0.79-0.79v-8.79h-1.37c-0.44,0-0.79-0.35-0.79-0.78c0-0.22,0.09-0.43,0.25-0.57l8.47-8.17
	c0.15-0.15,0.34-0.23,0.55-0.23c0.21,0,0.4,0.08,0.55,0.23l8.46,8.17c0.31,0.3,0.33,0.8,0.03,1.11c-0.15,0.16-0.36,0.24-0.57,0.24
	h-1.38v8.79c0,0.43-0.35,0.79-0.79,0.79H87.72z M87.08,65.77c0.43,0,0.79,0.35,0.79,0.79v4.96h3.77v-8.79
	c0-0.43,0.35-0.79,0.79-0.79h1.16l-8.1-7.82l-8.09,7.81h1.15c0.43,0,0.79,0.35,0.79,0.79v8.79h3.77v-4.95
	c0-0.43,0.35-0.79,0.79-0.79H87.08z"/>
<g class="st0">
	<path class="st1" d="M91.49,64.95c0,0.02,0.01,0.04,0.01,0.07l0-0.13C91.5,64.91,91.49,64.93,91.49,64.95z"/>
	<path class="st1" d="M78.48,67.43c0,0.02,0.01,0.03,0.01,0.04l0-0.09C78.49,67.4,78.48,67.42,78.48,67.43z"/>
	<path class="st1" d="M84.98,59.43c0,0.04,0.01,0.08,0.02,0.12l0-0.24C85,59.35,84.98,59.39,84.98,59.43z"/>
	<g class="st3">
		<path class="st4" d="M93.49,62.21v-8.49c0-0.57-0.46-1.04-1.04-1.04h-0.93c-0.57,0-1.04,0.46-1.04,1.04v8.49
			c-0.97,0.53-1.64,1.56-1.64,2.75c0,1.19,0.67,2.21,1.64,2.75v4.16c0,0.57,0.46,1.04,1.04,1.04h0.93c0.57,0,1.04-0.46,1.04-1.04
			V67.7c0.97-0.53,1.64-1.56,1.64-2.75C95.14,63.77,94.47,62.74,93.49,62.21z M91.99,67.1c-0.17,0-0.33-0.02-0.49-0.06
			c-0.39-0.09-0.73-0.28-1.01-0.55c-0.4-0.39-0.64-0.93-0.64-1.53s0.25-1.14,0.64-1.53c0.28-0.27,0.63-0.47,1.02-0.56
			c0.16-0.04,0.32-0.06,0.48-0.06c0.17,0,0.34,0.03,0.5,0.06c0.38,0.09,0.73,0.28,1,0.55c0.4,0.39,0.64,0.93,0.64,1.53
			s-0.25,1.14-0.64,1.53c-0.27,0.27-0.62,0.46-1,0.55C92.33,67.07,92.17,67.1,91.99,67.1z M91.53,53.68l0.96,0.04v8.15
			c-0.16-0.03-0.33-0.05-0.5-0.05c-0.16,0-0.32,0.02-0.48,0.05L91.53,53.68z M92.49,71.86c0,0.02-0.02,0.04-0.04,0.04l-0.96-0.04
			l0.01-3.81c0.16,0.03,0.32,0.05,0.49,0.05c0.17,0,0.34-0.02,0.5-0.05V71.86z"/>
		<path class="st4" d="M92.49,63.55c-0.16-0.06-0.32-0.09-0.5-0.09c-0.17,0-0.33,0.03-0.48,0.09c-0.59,0.2-1.02,0.76-1.02,1.41
			c0,0.65,0.42,1.21,1.01,1.41c0.15,0.05,0.32,0.09,0.49,0.09c0.18,0,0.34-0.04,0.5-0.09c0.58-0.21,1-0.76,1-1.41
			S93.07,63.75,92.49,63.55z M91.99,65.45c-0.25,0-0.45-0.19-0.49-0.43c0-0.02-0.01-0.04-0.01-0.07c0-0.02,0.01-0.04,0.01-0.07
			c0.03-0.24,0.23-0.43,0.49-0.43c0.28,0,0.5,0.22,0.5,0.5S92.27,65.45,91.99,65.45z"/>
		<path class="st4" d="M80.48,64.69V53.71c0-0.57-0.46-1.04-1.04-1.04h-0.93c-0.57,0-1.04,0.46-1.04,1.04v10.97
			c-0.97,0.53-1.64,1.56-1.64,2.75s0.67,2.21,1.64,2.75v1.68c0,0.57,0.46,1.04,1.04,1.04h0.93c0.57,0,1.04-0.46,1.04-1.04v-1.68
			c0.97-0.53,1.64-1.56,1.64-2.75S81.45,65.22,80.48,64.69z M78.98,69.58c-0.17,0-0.33-0.03-0.49-0.06c-0.39-0.09-0.73-0.28-1-0.55
			c-0.4-0.39-0.64-0.93-0.64-1.53s0.25-1.14,0.64-1.53c0.28-0.27,0.62-0.46,1.01-0.55c0.16-0.04,0.32-0.06,0.49-0.06
			c0.17,0,0.34,0.03,0.5,0.06c0.38,0.09,0.73,0.28,1,0.55c0.4,0.39,0.64,0.93,0.64,1.53s-0.25,1.14-0.64,1.53
			c-0.27,0.27-0.62,0.46-1,0.55C79.32,69.55,79.15,69.58,78.98,69.58z M78.51,53.68l0.96,0.04v10.63c-0.16-0.03-0.33-0.05-0.5-0.05
			c-0.17,0-0.33,0.02-0.48,0.05L78.51,53.68z M79.48,71.86c0,0.02-0.02,0.04-0.04,0.04l-0.96-0.04l0-1.33
			c0.16,0.03,0.33,0.05,0.5,0.05c0.17,0,0.34-0.02,0.5-0.05V71.86z"/>
		<path class="st4" d="M79.48,66.03c-0.16-0.06-0.32-0.09-0.5-0.09c-0.17,0-0.33,0.03-0.49,0.09c-0.59,0.2-1.01,0.76-1.01,1.41
			c0,0.65,0.42,1.2,1.01,1.41c0.16,0.05,0.32,0.09,0.49,0.09c0.18,0,0.34-0.04,0.5-0.09c0.58-0.21,1-0.76,1-1.41
			S80.06,66.23,79.48,66.03z M78.98,67.93c-0.26,0-0.47-0.2-0.49-0.46c0-0.01-0.01-0.03-0.01-0.04c0-0.02,0.01-0.03,0.01-0.04
			c0.02-0.25,0.23-0.46,0.49-0.46c0.28,0,0.5,0.22,0.5,0.5S79.25,67.93,78.98,67.93z"/>
		<path class="st4" d="M86.98,56.69v-2.97c0-0.57-0.46-1.04-1.04-1.04h-0.93c-0.57,0-1.04,0.46-1.04,1.04v2.97
			c-0.97,0.53-1.64,1.56-1.64,2.75s0.67,2.21,1.64,2.75v9.68c0,0.57,0.46,1.04,1.04,1.04h0.93c0.57,0,1.04-0.46,1.04-1.04v-9.68
			c0.97-0.53,1.64-1.56,1.64-2.75S87.96,57.22,86.98,56.69z M85.48,61.58c-0.17,0-0.32-0.02-0.48-0.06
			c-0.39-0.09-0.74-0.28-1.02-0.56c-0.4-0.39-0.64-0.93-0.64-1.53s0.25-1.14,0.64-1.53c0.28-0.27,0.63-0.47,1.03-0.56
			c0.15-0.03,0.31-0.06,0.47-0.06c0.17,0,0.34,0.03,0.5,0.06c0.38,0.09,0.73,0.28,1,0.55c0.4,0.39,0.64,0.93,0.64,1.53
			s-0.25,1.14-0.64,1.53c-0.27,0.27-0.62,0.46-1,0.55C85.82,61.55,85.66,61.58,85.48,61.58z M85.02,53.68l0.96,0.04v2.63
			c-0.16-0.03-0.33-0.05-0.5-0.05c-0.16,0-0.31,0.02-0.47,0.05L85.02,53.68z M85.98,71.86c0,0.02-0.02,0.04-0.04,0.04l-0.96-0.04
			L85,62.53c0.16,0.02,0.32,0.05,0.48,0.05c0.17,0,0.34-0.02,0.5-0.05V71.86z"/>
		<path class="st4" d="M85.98,58.03c-0.16-0.06-0.32-0.09-0.5-0.09c-0.17,0-0.32,0.03-0.47,0.08c-0.59,0.2-1.03,0.75-1.03,1.42
			c0,0.66,0.43,1.21,1.02,1.41c0.15,0.05,0.31,0.09,0.48,0.09c0.18,0,0.34-0.04,0.5-0.09c0.58-0.21,1-0.76,1-1.41
			S86.56,58.23,85.98,58.03z M85.48,59.93c-0.23,0-0.42-0.16-0.47-0.38c-0.01-0.04-0.02-0.08-0.02-0.12c0-0.04,0.01-0.08,0.02-0.12
			c0.06-0.21,0.24-0.38,0.47-0.38c0.28,0,0.5,0.22,0.5,0.5S85.76,59.93,85.48,59.93z"/>
	</g>
</g>
<g class="st0">
	<path class="st1" d="M93.57,70.49c-1.05,0-1.98-0.74-2.21-1.76l-7.62-0.05c-0.29,1.07-1.23,1.81-2.27,1.81
		c-0.72-0.05-1.33-0.36-1.74-0.86l-0.04-0.02l-0.08,0c-0.43,0.54-1.07,0.85-1.75,0.85c-1.05,0-1.95-0.72-2.19-1.74l-0.98-0.05
		c-0.5,0-0.92-0.41-0.92-0.92v-0.83l-0.44-0.06c-0.5,0-0.92-0.41-0.92-0.92V56c0-0.5,0.41-0.92,0.92-0.92h17.99
		c0.5,0,0.92,0.41,0.92,0.92v1.74l4.06,0.06c0.2,0,0.38,0.13,0.44,0.32c0.04,0.12,0.03,0.24-0.03,0.35
		c-0.04,0.08-0.11,0.15-0.19,0.19l1.08,3.4l0.56,0.58c0.26,0.25,0.4,0.6,0.4,0.97v3.7c0,0.5-0.41,0.92-0.92,0.92H95.9
		c-0.09,1.11-0.86,2.02-1.9,2.22C93.86,70.48,93.71,70.49,93.57,70.49z M77.86,66.87c-0.38,0-0.71,0.14-0.97,0.4
		c-0.25,0.25-0.39,0.59-0.39,0.95c0.01,0.2,0.03,0.32,0.07,0.42l0.03,0.1c0.09,0.2,0.17,0.31,0.28,0.43
		c0.15,0.14,0.27,0.22,0.41,0.29c0.24,0.1,0.4,0.14,0.56,0.14c0.15,0,0.31-0.03,0.47-0.1c0.06-0.02,0.12-0.06,0.17-0.09l0.15-0.08
		l0,0l0.06-0.04c0.04-0.02,0.07-0.04,0.11-0.07c0.14-0.17,0.23-0.31,0.29-0.47c0.03-0.07,0.04-0.14,0.05-0.21l0.03-0.14
		c0.01-0.04,0.02-0.09,0.02-0.14c0-0.37-0.14-0.71-0.39-0.96C78.56,67.01,78.22,66.87,77.86,66.87L77.86,66.87z M93.58,66.87
		c-0.75,0-1.35,0.61-1.35,1.35c0,0.74,0.61,1.34,1.35,1.34c0.75,0,1.35-0.6,1.35-1.35S94.32,66.87,93.58,66.87L93.58,66.87z
		 M81.48,66.87c-0.37,0-0.71,0.14-0.97,0.4c-0.25,0.25-0.39,0.59-0.39,0.95s0.14,0.7,0.4,0.95c0.25,0.25,0.59,0.39,0.95,0.39
		c0.37,0,0.7-0.14,0.96-0.39c0.26-0.25,0.4-0.59,0.4-0.95s-0.14-0.7-0.39-0.95C82.18,67.01,81.84,66.87,81.48,66.87L81.48,66.87z
		 M83.37,66.96c0.15,0.23,0.26,0.48,0.32,0.74l7.61,0.05c0.12-0.31,0.23-0.56,0.38-0.79l0.06-0.09H83.3L83.37,66.96z M74.7,67.69
		l0.88,0.06c0.12-0.31,0.23-0.56,0.38-0.79l0.06-0.09H74.7V67.69z M92.23,65.88l1.35,0.06c0.88,0,1.69,0.52,2.06,1.32l1.93,0.04
		l0.06-1.73l-0.44-0.06c-0.12,0-0.24-0.05-0.33-0.14c-0.09-0.09-0.13-0.2-0.13-0.33c0-0.25,0.21-0.46,0.46-0.46h0.38l0.06-0.97
		c0-0.12-0.05-0.23-0.13-0.31l-3.48-0.05c-0.5,0-0.92-0.41-0.92-0.92v-2.26c0-0.26,0.21-0.46,0.46-0.46h2.14l-0.2-0.84l-3.29-0.04
		V65.88z M73.34,65.88l17.9,0.06l0.06-9.87l-17.96-0.06V65.88z M94.04,62.26l2.58,0.06l-0.5-1.75l-2.08-0.04V62.26z"/>
</g>
<g id="Grupo_1489" transform="translate(1712.173 3541.2)">
	<g id="Grupo_1486" transform="translate(-1712.173 -3541.2)">
		<path id="Trazado_564" d="M16.04,44.28c-0.69,0.02-0.78-0.14-0.78-0.98c0.03-0.2,0.11-0.39,0.24-0.54
			c0.12-0.19,0.11-0.22-0.09-0.31c-0.2-0.11-0.41-0.21-0.62-0.29c-0.53-0.13-0.87-0.66-0.76-1.19c0.09-0.96-0.18-1.92-0.77-2.69
			c-0.19-0.29-0.42-0.54-0.7-0.74c-0.82-0.62-1-0.8-0.89-1.69c0.01-0.1,0.09-1.49-0.11-1.3c-0.09,0.08-0.25,0.29-0.4,0.41
			c-0.23,0.2-0.49,0.43-0.73,0.61c-0.62,0.47-0.69,0.62-0.2,1.24c0.48,0.6,1.02,1.16,1.51,1.75c0.46,0.38,0.71,0.96,0.69,1.55
			c-0.01,0.1,0,0.21,0.01,0.31c0.03,0.06,0.22,0.07,0.34,0.12c0.6,0.24,0.7,0.9,0.79,1.41c0.05,0.34-0.08,0.46-0.39,0.48
			c-0.18,0.01-0.65-0.08-1.24-0.08c-0.84,0-0.85-0.22-0.85-0.64c0-0.22,0.09-0.44,0.25-0.6c0.35-0.39-0.03-0.46-0.41-0.59
			s-0.34-0.42-0.32-0.77c0.02-0.49-0.18-0.97-0.56-1.29c-0.55-0.54-1.14-1.04-1.78-1.48c-0.25-0.15-0.42-0.41-0.44-0.71
			c-0.02-0.38-0.09-0.39-0.38-0.25c-0.18,0.09-0.78,0.44-0.7,0.32c0.14-0.21,0.24-0.44,0.29-0.69c0.2-0.56,0.1-1.18-0.25-1.66
			c-0.03,1.95-0.55,3.65-2.64,4.16c-1.05,0.4-2.23,0.11-2.98-0.71c0.52,0.28,1.1,0.39,1.68,0.33c1.36-0.27,2.24-1.59,1.97-2.95
			c-0.01-0.06-0.03-0.12-0.04-0.17c-0.3-0.73-0.76-1.4-1.34-1.94c-0.15-0.19-0.33-0.36-0.51-0.51c-0.09,0.37-0.03,0.76,0.16,1.1
			c-1.17-0.91-1.49-2.53-0.77-3.82c0.34-0.53,0.74-1.02,1.19-1.46c0.11-0.11,0.36-0.24,0.19-0.43c-0.14-0.16-0.34,0.01-0.49,0.09
			c-0.26,0.14-0.47,0.35-0.62,0.6c0.01-0.4,0.18-0.78,0.48-1.05c0.92-0.92,2-1.65,3.2-2.15c0.42-0.15,0.74-0.5,0.87-0.93
			c0.44-1.31,1.43-2.36,2.71-2.88c1.48-0.67,3.02-1.19,4.61-1.55c1.2-0.38,2.06-1.44,2.17-2.7c0.03-0.2,0.01-0.4-0.04-0.6
			c-0.01-0.03-0.22,0.03-0.44,0.11c-0.46,0.13-0.96,0.14-1.42,0.01c0.61-0.12,0.85-0.21,0.94-0.34c0.21-0.3,0.48-0.62,0.39-0.99
			c-0.1-0.42-0.55-0.34-1.28-0.25c0.31-0.13,1.21-0.21,1.4-0.58c0.04-0.09,0.12-0.19,0.1-0.27c-0.03-0.16-0.19-0.13-0.3-0.11
			c-0.35,0.06-0.71,0.14-1.07,0.19c0.28-0.13,0.54-0.31,0.78-0.51c0.13-0.14,0.34-0.29,0.15-0.51c-0.17-0.21-0.37-0.09-0.54,0.03
			c-0.19,0.13-0.36,0.29-0.48,0.49c-0.12-0.52,0.02-1.07,0.36-1.48c0.16-0.18,0.32-0.34,0.5-0.5c0.09-0.09,0.22-0.21,0.36-0.33
			c0.28-0.26,0.38-0.32-0.31-0.23c-0.36,0.07-0.73,0-1.04-0.19c1.14-0.45,1.41-1.71,2.26-2.42c-0.33-0.16-0.5,0.03-0.69,0.08
			c-0.16,0.04-1.28,0.22-1.04,0.12c0.29-0.09,0.57-0.24,0.8-0.44c0.47-0.45,0.94-0.89,1.42-1.33c0.36-0.3,0.61-0.72,0.7-1.18
			c0.16-0.87,0.65-1.64,1.36-2.17c0.56-0.45,0.95-1.07,1.11-1.76c0.05-0.2,0.11-0.39,0.2-0.57c0.16-0.32,0.46-0.53,0.81-0.59
			c-0.15,0.23-0.25,0.49-0.29,0.76c-0.14,0.45,0.11,0.93,0.56,1.07c0.01,0,0.03,0.01,0.04,0.01c0.89,0.43,1.73,0.98,2.48,1.63
			c1.11,1.1,2.43,1.98,3.89,2.58c0.26,0.09,1.1,0.27,1.06,0.84c-0.01,0.24,0.05,0.37-0.35,0.86C28.51,9,27.98,9.5,27.45,9.21
			c-0.21-0.17-0.44-0.32-0.67-0.46c-0.55-0.29-1.22-0.2-1.67,0.23c-0.49,0.3-1.04,0.48-1.61,0.5c-0.5,0.07-0.44-0.07-0.46,0.5
			c-0.26,1.26,0.23,2.56,1.26,3.34c0.89,0.68,1.6,1.56,2.07,2.58c0.35,0.57,0.98,0.9,1.65,0.86c1,0.05,1.99-0.13,2.91-0.51
			c1.12-0.48,1.66-0.28,1.66,0.94c0,0.97-0.03,2.12,0,3.09c0.01,0.29-0.13,0.56-0.38,0.72c-0.49,0.4-0.86,0.92-1.08,1.51
			c-0.17,0.53-0.62,0.92-1.16,1.02c-0.08,0.02-0.31-0.01-0.43,0.02c-0.08,0.02-0.03,0.28-0.05,0.35c-0.14,0.53-0.94,0.85-1.52,1.18
			c-0.27,0.15-0.21-0.18-0.23-0.5c-0.03-0.4-0.08-0.88-0.13-1.28c-0.05-0.47,0.08-0.31,0.68-0.45c0.56-0.05,1.08-0.31,1.46-0.72
			c-0.15-0.07-0.31-0.1-0.47-0.08c-0.19,0.01-0.39,0.08-0.44,0c-0.06-0.08,0.02-0.36,0.06-0.53c0.07-0.32,0.1-0.65,0.09-0.98
			c0.01-0.19,0.38-0.13,0.74-0.24c0.18-0.02,0.09-0.14-0.07-0.25c-0.19-0.13-0.34-0.27-0.58-0.18c-0.26,0.2-0.54,0.37-0.85,0.5
			c-0.78,0.32-1,0.17-1.57,0.7c-0.47,0.44-0.43,0.93-0.87,1.58c-1.39,1.95-3.57,3.19-5.96,3.38c-0.97,0.12-1.9,0.47-2.7,1.03
			c-0.24,0.17-0.39,0.34-0.28,0.65c0.62,1.91,0.21,4.01-1.07,5.56c-0.7,0.97-1.13,2.11-1.22,3.3c-0.02,0.4,0.03,0.81,0.16,1.19
			c0.4,1.36,1.11,2.61,1.46,4c0.08,0.31,0.44,0.31,0.69,0.39c0.76,0.35,1.22,1.15,1.14,1.98C18.01,44.34,16.1,44.3,16.04,44.28z"/>
	</g>
	<g id="Grupo_1487" transform="translate(-1674.214 -3526.84)">
		<path id="Trazado_565" d="M-1.11,10.04l1.75-9.92h4.74c0.48,0,0.97,0.03,1.45,0.09C7.22,0.26,7.6,0.37,7.96,0.54
			c0.3,0.13,0.57,0.35,0.76,0.62C8.91,1.44,9,1.77,8.99,2.11c0,0.17-0.01,0.33-0.04,0.5c-0.08,0.47-0.29,0.9-0.59,1.26
			c-0.3,0.37-0.67,0.67-1.09,0.9C7.66,4.86,8,5.09,8.24,5.41c0.23,0.33,0.35,0.73,0.34,1.14c0,0.17-0.02,0.33-0.06,0.5
			C8.4,8,7.85,8.85,7.02,9.33C6,9.85,4.86,10.09,3.73,10.04L-1.11,10.04z M2.87,5.89L2.55,7.72h1.42c0.37,0.02,0.74-0.05,1.07-0.2
			C5.32,7.38,5.5,7.12,5.53,6.81c0-0.04,0-0.07,0.01-0.11c0.01-0.05,0.01-0.09,0.01-0.09c0.03-0.27-0.14-0.51-0.4-0.59
			c-0.41-0.1-0.83-0.15-1.25-0.13L2.87,5.89z M3.48,2.43L3.19,4.09h1.35c0.3,0.01,0.6-0.07,0.85-0.23c0.22-0.14,0.38-0.38,0.41-0.64
			c0-0.04,0.01-0.07,0.01-0.11c0.01-0.03,0.01-0.05,0.01-0.08c0.03-0.22-0.1-0.43-0.3-0.5c-0.3-0.07-0.6-0.11-0.91-0.09L3.48,2.43z"
			/>
		<path id="Trazado_566" d="M8.84,10.04l1.75-9.92h3.25L12.5,7.72h4.46l-0.41,2.32H8.84z"/>
		<path id="Trazado_567" d="M17.41,10.04l5.3-9.92h3.31l1.8,9.92h-3.24l-0.15-1.31H21.2l-0.61,1.31H17.41z M23.82,3.11l-1.64,3.56
			h2.05L23.82,3.11z"/>
		<path id="Trazado_568" d="M35.39,3.91V3.7c0.02-0.39-0.12-0.77-0.39-1.05c-0.3-0.27-0.7-0.4-1.1-0.38c-0.58,0-1.13,0.27-1.48,0.74
			c-0.47,0.63-0.76,1.38-0.86,2.16c-0.06,0.34-0.09,0.69-0.09,1.03c-0.03,0.44,0.1,0.87,0.36,1.22c0.32,0.33,0.77,0.5,1.22,0.45
			c0.45,0.02,0.9-0.15,1.23-0.45c0.35-0.34,0.6-0.76,0.72-1.22h3.13c-0.32,1.2-1.03,2.26-2.02,3.01c-0.99,0.73-2.2,1.12-3.44,1.1
			c-1.19,0.08-2.37-0.31-3.29-1.07c-0.8-0.77-1.23-1.85-1.16-2.96c0-0.41,0.04-0.81,0.11-1.21c0.13-0.75,0.38-1.48,0.75-2.15
			c0.35-0.63,0.8-1.18,1.34-1.65c0.52-0.45,1.12-0.81,1.76-1.05c0.64-0.24,1.32-0.36,2-0.36c1.15-0.08,2.29,0.25,3.21,0.94
			c0.75,0.68,1.15,1.67,1.09,2.68c0,0.04,0,0.11-0.01,0.21V3.9L35.39,3.91z"/>
		<path id="Trazado_569" d="M39.83,0.12h3.25l-0.56,3.21l3.42-3.21h3.82l-4.29,3.73l2.92,6.19h-3.9l-1.68-3.95L41.88,6.9l-0.55,3.14
			h-3.25L39.83,0.12z"/>
		<path id="Trazado_570" d="M54.57,10.04l1.75-9.92h3.25l-0.59,3.35h3.07l0.59-3.35h3.25l-1.75,9.92H60.9l0.67-3.84H58.5l-0.67,3.84
			H54.57z"/>
		<path id="Trazado_571" d="M73.75,0.18c0.52,0.19,0.99,0.49,1.38,0.89c0.36,0.37,0.63,0.82,0.8,1.31c0.18,0.51,0.27,1.05,0.26,1.6
			c0,0.35-0.03,0.7-0.09,1.05c-0.13,0.78-0.4,1.53-0.78,2.22c-0.36,0.64-0.83,1.21-1.39,1.67c-0.55,0.45-1.17,0.8-1.84,1.03
			c-0.68,0.24-1.4,0.35-2.12,0.35c-1.17,0.07-2.32-0.31-3.22-1.06c-0.81-0.78-1.23-1.87-1.16-2.99c0-0.42,0.04-0.84,0.12-1.25
			c0.12-0.74,0.37-1.46,0.74-2.11c0.35-0.62,0.81-1.17,1.36-1.63c0.54-0.46,1.16-0.81,1.83-1.04c0.7-0.24,1.43-0.36,2.16-0.36
			C72.46-0.16,73.13-0.05,73.75,0.18z M70.4,2.52c-0.28,0.16-0.52,0.38-0.71,0.64c-0.2,0.27-0.35,0.56-0.47,0.87
			c-0.12,0.32-0.21,0.65-0.28,0.98c-0.05,0.31-0.08,0.62-0.08,0.94c-0.02,0.49,0.1,0.97,0.35,1.38c0.27,0.37,0.72,0.57,1.18,0.53
			C71.02,7.9,71.62,7.61,72,7.11c0.45-0.61,0.73-1.33,0.84-2.08c0.05-0.27,0.08-0.54,0.08-0.81c0.02-0.49-0.11-0.98-0.38-1.39
			c-0.28-0.37-0.74-0.58-1.21-0.54C71.01,2.28,70.69,2.36,70.4,2.52L70.4,2.52z"/>
		<path id="Trazado_572" d="M79.84,6.58l-0.61,3.46h-3.25l1.75-9.92h4.69c1.04-0.07,2.09,0.1,3.05,0.51
			c0.6,0.32,0.96,0.95,0.92,1.63c0,0.23-0.03,0.46-0.07,0.69c-0.1,0.57-0.34,1.1-0.7,1.54c-0.36,0.44-0.85,0.74-1.4,0.88
			c0.37,0.12,0.72,0.32,1.02,0.58c0.23,0.3,0.34,0.68,0.3,1.06C85.54,7.34,85.51,7.67,85.44,8c-0.02,0.13-0.04,0.24-0.06,0.34
			c-0.07,0.35-0.12,0.7-0.15,1.06c0,0.22,0.08,0.33,0.25,0.33l-0.05,0.3h-3.29V9.94c-0.01-0.06-0.01-0.12-0.01-0.18
			c0.01-0.49,0.06-0.98,0.15-1.46c0.06-0.25,0.09-0.51,0.09-0.77c0.03-0.29-0.1-0.57-0.33-0.74c-0.37-0.17-0.79-0.25-1.2-0.21
			L79.84,6.58z M80.23,4.4h1.28c0.41,0.02,0.83-0.05,1.21-0.22c0.28-0.14,0.46-0.41,0.5-0.72c0-0.04,0.01-0.07,0.01-0.11
			c0.01-0.06,0.01-0.09,0.01-0.09c0.01-0.25-0.1-0.48-0.31-0.62c-0.26-0.15-0.55-0.22-0.85-0.21h-1.52L80.23,4.4z"/>
		<path id="Trazado_573" d="M92.82,3c0.02-0.27-0.11-0.53-0.34-0.67c-0.25-0.13-0.53-0.19-0.81-0.18c-0.69,0-1.07,0.19-1.13,0.56
			v0.04L90.53,2.8c0.01,0.25,0.18,0.46,0.42,0.53c0.44,0.17,0.89,0.31,1.34,0.42c0.51,0.14,0.93,0.26,1.26,0.37
			c0.34,0.11,0.66,0.26,0.96,0.44c0.31,0.18,0.56,0.43,0.76,0.73c0.2,0.32,0.3,0.69,0.29,1.07c0,0.18-0.02,0.35-0.06,0.52
			c-0.16,1.06-0.78,2-1.71,2.55c-1.07,0.61-2.29,0.91-3.53,0.87c-0.55,0.01-1.09-0.07-1.61-0.23c-0.44-0.13-0.85-0.34-1.21-0.63
			c-0.32-0.25-0.58-0.57-0.76-0.93c-0.18-0.36-0.27-0.75-0.26-1.15c0-0.13,0.01-0.26,0.03-0.39h3.11c-0.01,0.31,0.14,0.61,0.4,0.79
			c0.26,0.17,0.57,0.26,0.88,0.25c0.35,0.01,0.7-0.05,1.02-0.19c0.23-0.09,0.41-0.29,0.46-0.54c0-0.02,0-0.04,0.01-0.06V7.19
			c-0.01-0.25-0.18-0.46-0.41-0.52c-0.43-0.17-0.86-0.31-1.31-0.41C90.1,6.12,89.67,6,89.34,5.9C89,5.79,88.68,5.64,88.37,5.45
			c-0.31-0.19-0.57-0.44-0.76-0.74c-0.2-0.34-0.3-0.72-0.29-1.12c0-0.19,0.02-0.38,0.06-0.56c0.15-0.98,0.73-1.85,1.59-2.35
			c0.99-0.57,2.12-0.86,3.26-0.82c0.57-0.01,1.14,0.06,1.69,0.23c0.43,0.13,0.82,0.35,1.15,0.65c0.29,0.28,0.51,0.62,0.65,0.99
			c0.14,0.41,0.21,0.84,0.21,1.27L92.82,3z"/>
		<path id="Trazado_574" d="M96.05,10.04l1.75-9.92h8.08l-0.41,2.32h-4.84l-0.25,1.42h4.09l-0.4,2.32h-4.09l-0.28,1.56h5.03
			l-0.41,2.32L96.05,10.04z"/>
	</g>
	<g id="Grupo_1488" transform="translate(-1674.782 -3513.693)">
		<path id="Trazado_575" d="M2.89,1.31V1.2c0.01-0.21-0.06-0.43-0.21-0.58C2.51,0.47,2.29,0.4,2.07,0.41
			c-0.32,0-0.63,0.15-0.82,0.41C0.99,1.17,0.83,1.58,0.77,2.01C0.74,2.2,0.72,2.4,0.72,2.59C0.7,2.83,0.77,3.07,0.92,3.26
			C1.09,3.45,1.34,3.54,1.6,3.51c0.25,0.01,0.5-0.08,0.68-0.25c0.19-0.19,0.33-0.42,0.4-0.68h1.73C4.24,3.25,3.84,3.83,3.29,4.25
			C2.74,4.66,2.07,4.87,1.39,4.86C0.73,4.9,0.08,4.69-0.43,4.26c-0.44-0.43-0.68-1.02-0.64-1.64c0-0.23,0.02-0.45,0.06-0.67
			c0.07-0.42,0.21-0.82,0.42-1.19c0.19-0.35,0.44-0.66,0.74-0.92C0.43-0.4,0.76-0.6,1.12-0.73c0.35-0.13,0.73-0.2,1.11-0.2
			C2.87-0.98,3.5-0.79,4.01-0.41c0.42,0.38,0.64,0.92,0.6,1.49c0,0.02,0,0.06-0.01,0.11v0.12L2.89,1.31z"/>
		<path id="Trazado_576" d="M8.32,4.71l2.94-5.5h1.83l1,5.5H12.3l-0.08-0.73h-1.79l-0.34,0.73H8.32z M11.87,0.87l-0.91,1.97h1.14
			L11.87,0.87z"/>
		<path id="Trazado_577" d="M20.76,2.8l-0.34,1.92h-1.8l0.97-5.5h2.6c0.58-0.04,1.16,0.06,1.69,0.28c0.33,0.18,0.53,0.53,0.51,0.9
			c0,0.13-0.01,0.26-0.04,0.38c-0.05,0.31-0.19,0.61-0.39,0.85c-0.2,0.24-0.47,0.41-0.78,0.49c0.21,0.07,0.4,0.18,0.56,0.32
			c0.13,0.17,0.19,0.38,0.17,0.59c0,0.18-0.02,0.37-0.06,0.55c-0.01,0.07-0.02,0.13-0.03,0.19c-0.04,0.19-0.07,0.39-0.08,0.59
			c0,0.12,0.05,0.18,0.14,0.18l-0.03,0.17h-1.82V4.66c0-0.03-0.01-0.07-0.01-0.1c0.01-0.27,0.03-0.54,0.08-0.81
			c0.03-0.14,0.05-0.28,0.05-0.43c0.02-0.16-0.05-0.31-0.18-0.41c-0.21-0.1-0.44-0.14-0.66-0.12L20.76,2.8z M20.97,1.59h0.71
			c0.23,0.01,0.46-0.03,0.67-0.12c0.15-0.08,0.26-0.23,0.28-0.4c0-0.02,0-0.04,0.01-0.06c0-0.03,0.01-0.05,0.01-0.05
			c0.01-0.14-0.06-0.27-0.17-0.34C22.33,0.53,22.17,0.49,22,0.5h-0.84L20.97,1.59z"/>
		<path id="Trazado_578" d="M30.67,2.8l-0.34,1.92h-1.8l0.97-5.5h2.6c0.58-0.04,1.16,0.06,1.69,0.28c0.33,0.18,0.53,0.53,0.51,0.9
			c0,0.13-0.01,0.26-0.04,0.38c-0.05,0.31-0.19,0.61-0.39,0.85c-0.2,0.24-0.47,0.41-0.78,0.49c0.21,0.07,0.4,0.18,0.56,0.32
			c0.13,0.17,0.19,0.38,0.17,0.59c0,0.18-0.02,0.37-0.06,0.55c-0.01,0.07-0.02,0.13-0.03,0.19c-0.04,0.19-0.07,0.39-0.08,0.59
			c0,0.12,0.05,0.18,0.14,0.18l-0.03,0.17h-1.83V4.66c0-0.03-0.01-0.07-0.01-0.1c0.01-0.27,0.03-0.54,0.08-0.81
			c0.03-0.14,0.05-0.28,0.05-0.43c0.02-0.16-0.05-0.31-0.18-0.41c-0.21-0.1-0.44-0.14-0.66-0.12L30.67,2.8z M30.88,1.59h0.71
			c0.23,0.01,0.46-0.03,0.67-0.12c0.15-0.08,0.26-0.23,0.28-0.4c0-0.02,0-0.04,0.01-0.06c0-0.03,0.01-0.05,0.01-0.05
			c0.01-0.14-0.06-0.27-0.17-0.34c-0.14-0.08-0.31-0.12-0.47-0.11h-0.84L30.88,1.59z"/>
		<path id="Trazado_579" d="M38.56,4.71l0.97-5.5h1.8l-0.97,5.5H38.56z"/>
		<path id="Trazado_580" d="M45.5,4.71l0.97-5.5h4.48L50.72,0.5h-2.68L47.9,1.28h2.27l-0.22,1.28h-2.27l-0.15,0.86h2.79l-0.23,1.28
			L45.5,4.71z"/>
		<path id="Trazado_581" d="M57.62,2.8l-0.34,1.92h-1.8l0.97-5.5h2.6c0.58-0.04,1.16,0.06,1.69,0.28c0.33,0.18,0.53,0.53,0.51,0.9
			c0,0.13-0.01,0.26-0.04,0.38c-0.05,0.31-0.19,0.61-0.39,0.85c-0.2,0.24-0.47,0.41-0.78,0.49c0.21,0.07,0.4,0.18,0.56,0.32
			c0.13,0.17,0.19,0.38,0.17,0.59c0,0.18-0.02,0.37-0.06,0.55c-0.01,0.07-0.02,0.13-0.03,0.19c-0.04,0.19-0.07,0.39-0.08,0.59
			c0,0.12,0.05,0.18,0.14,0.18l-0.03,0.17h-1.83V4.66c0-0.03-0.01-0.07-0.01-0.1c0.01-0.27,0.03-0.54,0.08-0.81
			c0.03-0.14,0.05-0.28,0.05-0.43c0.01-0.16-0.06-0.32-0.19-0.41c-0.21-0.1-0.44-0.14-0.66-0.12L57.62,2.8z M57.83,1.59h0.71
			C58.77,1.6,59,1.56,59.21,1.47c0.15-0.08,0.26-0.23,0.28-0.4c0-0.02,0-0.04,0.01-0.06c0-0.03,0.01-0.05,0.01-0.05
			c0.01-0.14-0.06-0.27-0.17-0.34c-0.14-0.08-0.31-0.12-0.47-0.11h-0.84L57.83,1.59z"/>
		<path id="Trazado_582" d="M69.16,0.81c0.01-0.15-0.06-0.3-0.19-0.38c-0.14-0.07-0.29-0.11-0.45-0.1c-0.38,0-0.59,0.1-0.63,0.31
			v0.02L67.89,0.7c0.01,0.14,0.1,0.26,0.23,0.29c0.24,0.1,0.49,0.17,0.74,0.23c0.29,0.08,0.52,0.14,0.7,0.2
			c0.19,0.06,0.36,0.14,0.53,0.24c0.17,0.1,0.31,0.24,0.42,0.41c0.11,0.18,0.17,0.38,0.16,0.59c0,0.1-0.01,0.2-0.03,0.29
			c-0.09,0.59-0.43,1.11-0.95,1.41c-0.59,0.34-1.27,0.51-1.96,0.48c-0.3,0-0.6-0.04-0.89-0.13c-0.24-0.07-0.47-0.19-0.67-0.35
			C66,4.24,65.86,4.07,65.76,3.86c-0.1-0.2-0.15-0.42-0.14-0.64c0-0.07,0.01-0.14,0.02-0.21h1.73c-0.01,0.17,0.08,0.34,0.22,0.44
			c0.14,0.1,0.32,0.15,0.49,0.14c0.19,0.01,0.39-0.03,0.56-0.11c0.13-0.05,0.22-0.16,0.25-0.3c0-0.01,0-0.02,0.01-0.03V3.13
			c-0.01-0.14-0.1-0.25-0.23-0.29c-0.24-0.09-0.48-0.17-0.73-0.23c-0.29-0.07-0.52-0.14-0.7-0.19c-0.19-0.06-0.37-0.14-0.54-0.25
			c-0.17-0.1-0.32-0.24-0.42-0.41c-0.11-0.19-0.17-0.4-0.16-0.62c0-0.11,0.01-0.21,0.03-0.31c0.08-0.54,0.41-1.02,0.88-1.3
			c0.55-0.32,1.17-0.47,1.81-0.45c0.32-0.01,0.64,0.04,0.94,0.13C70-0.74,70.22-0.61,70.4-0.45c0.16,0.15,0.28,0.34,0.36,0.55
			c0.08,0.23,0.12,0.47,0.11,0.71L69.16,0.81z"/>
		<path id="Trazado_583" d="M71.75,5.39c0.21-0.02,0.41-0.1,0.57-0.22c0.14-0.12,0.25-0.28,0.29-0.46h-0.74l0.27-1.57h1.62
			l-0.23,1.33c-0.06,0.45-0.29,0.86-0.63,1.15c-0.36,0.28-0.81,0.43-1.27,0.44L71.75,5.39z"/>
		<path id="Trazado_584" d="M82.75,4.71l0.97-5.5h1.8l-0.97,5.5H82.75z"/>
		<path id="Trazado_585" d="M92.66,2.21l0.15-1.25l0.31-1.75h1.73l-0.97,5.5h-1.69l-1.44-2.99L90.6,2.97l-0.31,1.74h-1.73l0.97-5.5
			h1.69L92.66,2.21z"/>
		<path id="Trazado_586" d="M102.02,1.31V1.2c0.01-0.21-0.06-0.43-0.21-0.58c-0.17-0.15-0.39-0.22-0.61-0.21
			c-0.32,0-0.63,0.15-0.82,0.41c-0.26,0.35-0.42,0.76-0.48,1.19c-0.03,0.19-0.05,0.38-0.05,0.57c-0.01,0.24,0.06,0.48,0.2,0.68
			c0.18,0.18,0.43,0.27,0.68,0.25c0.25,0.01,0.5-0.08,0.68-0.25c0.19-0.19,0.33-0.42,0.4-0.68h1.73c-0.18,0.67-0.57,1.25-1.12,1.67
			c-0.55,0.41-1.22,0.62-1.91,0.61c-0.66,0.04-1.31-0.17-1.82-0.59c-0.44-0.43-0.68-1.02-0.65-1.64c0-0.23,0.02-0.45,0.06-0.67
			c0.07-0.42,0.21-0.82,0.42-1.19c0.19-0.35,0.45-0.66,0.74-0.92c0.29-0.25,0.62-0.45,0.98-0.58c0.35-0.13,0.73-0.2,1.11-0.2
			c0.64-0.05,1.27,0.14,1.78,0.52c0.42,0.38,0.64,0.92,0.6,1.49c0,0.02,0,0.06-0.01,0.11v0.12L102.02,1.31z"/>
		<path id="Trazado_587" d="M104.62,4.71l0.27-1.57h1.62l-0.27,1.57H104.62z"/>
	</g>
</g>
</svg>
